<?xml version="1.0" encoding="iso-8859-1"?>
<!-- Generator: Adobe Illustrator 19.0.0, SVG Export Plug-In . SVG Version: 6.00 Build 0)  -->
<svg version="1.1" id="Capa_1" xmlns="http://www.w3.org/2000/svg" xmlns:xlink="http://www.w3.org/1999/xlink" x="0px" y="0px"
	 viewBox="0 0 512.001 512.001" style="enable-background:new 0 0 512.001 512.001;" xml:space="preserve">
<g>
	<g>
		<path d="M281.668,460.039v-21.736H12.153v18.633c0,30.362,24.702,55.065,55.064,55.065h232.18
			C288.295,497.603,281.668,479.585,281.668,460.039z"/>
	</g>
</g>
<g>
	<g>
		<path d="M442.936,0H151.917c-30.893,0-55.938,25.044-55.938,55.938v352.365h215.688v51.736c0,15.996,6.832,30.425,17.73,40.525
			C337.45,508.026,348.131,512,359.109,512c40.898,0,55.067-35.145,56.846-53.728l0.068-0.713V103.697h83.825V56.913
			C499.849,25.481,474.368,0,442.936,0z M338.154,308.134L338.154,308.134H173.645v-30h164.509V308.134z M338.154,245.264
			L338.154,245.264H173.645v-30h164.509V245.264z M338.154,182.567L338.154,182.567H173.645v-30h164.509V182.567z"/>
	</g>
</g>
<g>
</g>
<g>
</g>
<g>
</g>
<g>
</g>
<g>
</g>
<g>
</g>
<g>
</g>
<g>
</g>
<g>
</g>
<g>
</g>
<g>
</g>
<g>
</g>
<g>
</g>
<g>
</g>
<g>
</g>
</svg>
